<?xml version="1.0" encoding="UTF-8"?>
<svg data-bbox="0 9.38 1000 267.5" viewBox="0 0 1000 276.87" xmlns="http://www.w3.org/2000/svg" data-type="color">
    <g>
        <g>
            <path d="M0 12.39h127v37.36H84v224.13H43V49.75H0z" fill="#ffffff" data-color="1"/>
        </g>
        <g>
            <path d="M263.73 273.88h-41.47l-7.1-47.44h-50.42l-7.1 47.44h-37.73l41.84-261.49h60.14zM170 191h39.6L190.14 58.71h-.75z" fill="#ffffff" data-color="1"/>
        </g>
        <g>
            <path d="M320.13 84.49h-.75v189.39h-37V12.39H334l41.47 156.52h.75V12.39h36.61v261.49h-42.26z" fill="#ffffff" data-color="1"/>
        </g>
        <g>
            <path d="M503.92 128.2h57.53v82.93c0 41.84-20.92 65.75-61.26 65.75s-61.27-23.88-61.27-65.75v-136c0-41.84 20.92-65.75 61.26-65.75s61.26 23.91 61.26 65.75v25.4H522.6v-28c0-18.68-8.22-25.78-21.29-25.78S480 53.86 480 72.54v141.2c0 18.68 8.22 25.4 21.29 25.4s21.29-6.72 21.29-25.4v-48.19h-18.66z" fill="#ffffff" data-color="1"/>
        </g>
        <g>
            <path d="M762.79 84.49H762v189.39h-37V12.39h51.55l41.47 156.52h.75V12.39h36.61v261.49h-42.16z" fill="#ffffff" data-color="1"/>
        </g>
        <g>
            <path d="M873 12.39h127v37.36h-43v224.13h-41.05V49.75H873z" fill="#ffffff" data-color="1"/>
        </g>
        <path fill="#009ee2" d="M700.04 126.33v37.35H587.97v-37.35h112.07z" data-color="2"/>
        <path fill="#009ee2" d="M700.04 12.39v37.35H587.97V12.39h112.07z" data-color="2"/>
        <path fill="#009ee2" d="M700.04 236.53v37.35H587.97v-37.35h112.07z" data-color="2"/>
    </g>
</svg>
